<?xml version="1.0" standalone="no"?>
<!DOCTYPE svg PUBLIC "-//W3C//DTD SVG 20010904//EN"
 "http://www.w3.org/TR/2001/REC-SVG-20010904/DTD/svg10.dtd">
<svg version="1.0" xmlns="http://www.w3.org/2000/svg"
 width="512.000000pt" height="512.000000pt" viewBox="0 0 512.000000 512.000000"
 preserveAspectRatio="xMidYMid meet">
<metadata>
Created by potrace 1.14, written by Peter Selinger 2001-2017
</metadata>
<g transform="translate(0.000000,512.000000) scale(0.100000,-0.100000)"
fill="#000000" stroke="none">
<path d="M0 4185 l0 -775 400 0 400 0 0 375 0 375 350 0 350 0 0 -1600 0
-1600 -185 0 -185 0 0 -400 0 -400 843 2 842 3 3 397 2 398 -200 0 -200 0 0
1600 0 1600 350 0 350 0 0 -375 0 -375 400 0 400 0 0 775 0 775 -1960 0 -1960
0 0 -775z"/>
<path d="M2770 2515 l0 -495 285 0 285 0 0 210 0 210 150 0 150 0 0 -855 0
-855 -115 0 -115 0 0 -285 0 -285 538 2 537 3 0 280 0 280 -107 3 -108 3 0
854 0 855 145 0 145 0 0 -210 0 -210 280 0 280 0 0 495 0 495 -1175 0 -1175 0
0 -495z"/>
</g>
</svg>
